#!OML:ASF I:\Actors\actors\Patient Classification 2\Patient 1\Session 1\actor1.ASF
:FULLY-SPECIFIED
:DEGREES
206
root 0.0105708 18.7092 5.42649 1.53285 12.5687 3.2509
lowerback 3.29629 -3.11355 15.8997
upperback -1.33107 -3.06869 7.70083
thorax -3.72306 -1.73885 -0.469654
lowerneck -7.25265 -10.751 -15.087
upperneck 19.2887 -13.2577 3.08952
head 8.45705 -7.09454 2.05762
rclavicle -1.59028e-015 -5.40694e-014
rhumerus 12.7766 -5.61892 -51.5235
rradius 41.9501
rwrist -9.28371
rhand -11.562 -47.3615
rfingers 7.12502
rthumb 14.4791 -76.8364
lclavicle -1.59028e-015 -5.40694e-014
lhumerus 73.0483 -56.4737 28.2807
lradius 107.449
lwrist 40.7077
lhand -9.43196 -11.4386
lfingers 7.12502
lthumb 16.5306 17.8773
rfemur 0 0 0
rtibia 0
rfoot 0 0
rtoes 0
lfemur -9.09516 -0.0699042 -18.3478
ltibia 25.201
lfoot -14.5181 -0.703605
ltoes -56.9571
207
root 0.00896211 18.7069 5.41688 1.46244 13.4612 3.21911
lowerback 3.27536 -2.98054 15.9872
upperback -1.32107 -2.89188 7.68827
thorax -3.68373 -1.65008 -0.546179
lowerneck -6.98692 -10.833 -15.2641
upperneck 18.933 -13.4447 3.43658
head 8.34395 -7.16108 2.19373
rclavicle 4.92986e-014 -7.63333e-014
rhumerus 12.6233 -7.01805 -50.8395
rradius 41.0668
rwrist -7.52059
rhand -11.7438 -47.4563
rfingers 7.12502
rthumb 14.3039 -76.9436
lclavicle 4.92986e-014 -7.63333e-014
lhumerus 72.9795 -56.2556 28.2743
lradius 108.283
lwrist 41.3871
lhand -8.8121 -12.6196
lfingers 7.12502
lthumb 17.1273 16.6455
rfemur 0 0 0
rtibia 0
rfoot 0 0
rtoes 0
lfemur -9.23317 -0.327582 -18.2886
ltibia 25.3121
lfoot -14.4035 -1.2851
ltoes -56.7415
208
root 0.00727244 18.7039 5.40524 1.38336 14.3717 3.19058
lowerback 3.32668 -2.85626 16.0541
upperback -1.33616 -2.70786 7.65763
thorax -3.71113 -1.56221 -0.626275
lowerneck -6.79621 -10.955 -15.412
upperneck 18.6559 -13.6811 3.78298
head 8.27481 -7.24984 2.31272
rclavicle -5.26779e-014 1.145e-013
rhumerus 12.3577 -8.49312 -50.117
rradius 40.3372
rwrist -5.40983
rhand -11.2111 -47.1169
rfingers 7.12502
rthumb 14.8171 -76.5672
lclavicle -5.26779e-014 1.145e-013
lhumerus 73.2638 -56.054 27.9223
lradius 109.136
lwrist 41.7522
lhand -8.72071 -13.8247
lfingers 7.12502
lthumb 17.2153 15.4327
rfemur 0 0 0
rtibia 0
rfoot 0 0
rtoes 0
lfemur -9.38718 -0.53002 -18.2302
ltibia 25.4345
lfoot -14.2563 -1.96217
ltoes -56.5782
209
root 0.00379428 18.701 5.39354 1.28018 15.2631 3.13792
lowerback 3.43725 -2.73254 16.139
upperback -1.33616 -2.51227 7.62935
thorax -3.75474 -1.46933 -0.712
lowerneck -6.79691 -11.081 -15.6306
upperneck 18.4621 -13.8949 4.18778
head 8.2766 -7.32609 2.4507
rclavicle 1.92821e-014 -1.11319e-013
rhumerus 11.9799 -9.84804 -49.271
rradius 39.8526
rwrist -3.68666
rhand -10.6899 -46.7252
rfingers 7.12502
rthumb 15.3192 -76.1378
lclavicle 1.92821e-014 -1.11319e-013
lhumerus 73.7611 -55.8249 27.4618
lradius 109.954
lwrist 42.1442
lhand -8.81978 -15.2223
lfingers 7.12502
lthumb 17.1199 14.0434
rfemur 0 0 0
rtibia 0
rfoot 0 0
rtoes 0
lfemur -9.54019 -0.882033 -18.1624
ltibia 25.5724
lfoot -14.0743 -2.42488
ltoes -56.5049
210
root -0.00012133 18.6982 5.38467 1.20356 16.1288 3.08005
lowerback 3.49381 -2.5946 16.2497
upperback -1.285 -2.3174 7.59539
thorax -3.71257 -1.37081 -0.822688
lowerneck -7.03129 -11.1914 -15.7909
upperneck 18.3062 -14.0378 4.49625
head 8.31473 -7.36928 2.54407
rclavicle 2.98177e-016 -6.36111e-015
rhumerus 11.6094 -11.4276 -48.5588
rradius 39.4149
rwrist -2.23217
rhand -10.7568 -45.508
rfingers 7.12502
rthumb 15.2548 -74.9255
lclavicle 2.98177e-016 -6.36111e-015
lhumerus 74.2674 -55.5296 27.079
lradius 110.772
lwrist 42.5297
lhand -8.98423 -16.3095
lfingers 7.12502
lthumb 16.9616 12.9699
rfemur 0 0 0
rtibia 0
rfoot 0 0
rtoes 0
lfemur -9.71843 -1.27861 -18.0906
ltibia 25.7219
lfoot -13.8909 -2.81532
ltoes -56.4426
